<?xml version="1.0" encoding="UTF-8" standalone="no"?>
<svg
   inkscape:version="1.4.3 (0d15f75042, 2025-12-25)"
   sodipodi:docname="menubaritem.svgz"
   version="1.1"
   viewBox="0 0 126 34"
   id="svg2"
   width="126"
   height="34"
   xmlns:inkscape="http://www.inkscape.org/namespaces/inkscape"
   xmlns:sodipodi="http://sodipodi.sourceforge.net/DTD/sodipodi-0.dtd"
   xmlns="http://www.w3.org/2000/svg"
   xmlns:svg="http://www.w3.org/2000/svg">
  <defs
     id="defs319" />
  <sodipodi:namedview
     inkscape:window-maximized="1"
     inkscape:window-y="28"
     inkscape:window-x="0"
     inkscape:cy="23.643882"
     inkscape:cx="15.379572"
     inkscape:zoom="11.313709"
     inkscape:current-layer="svg2"
     showgrid="true"
     id="namedview317"
     inkscape:window-height="740"
     inkscape:window-width="1366"
     inkscape:pageshadow="2"
     inkscape:pageopacity="0"
     guidetolerance="10"
     gridtolerance="10"
     objecttolerance="10"
     borderopacity="1"
     bordercolor="#666666"
     pagecolor="#ffffff"
     inkscape:snap-text-baseline="true"
     inkscape:snap-smooth-nodes="true"
     fit-margin-top="0"
     fit-margin-left="0"
     fit-margin-right="0"
     fit-margin-bottom="0"
     inkscape:showpageshadow="2"
     inkscape:pagecheckerboard="0"
     inkscape:deskcolor="#d1d1d1">
    <inkscape:grid
       empspacing="2"
       id="grid1136"
       type="xygrid"
       originx="2"
       originy="0"
       spacingy="1"
       spacingx="1"
       units="px" />
  </sodipodi:namedview>
  <style
     id="current-color-scheme"
     type="text/css">
        .ColorScheme-ButtonBackground {
            color:#eff0f1;
            stop-color:#eff0f1;
        }
        .ColorScheme-ButtonHover {
            color:#93cee9;
            stop-color:#93cee9;
        }
        .ColorScheme-ButtonFocus{
            color:#3daee9;
            stop-color:#3daee9;
        }
    </style>
  <g
     transform="translate(-172,-62)"
     id="normal-center">
    <path
       id="path34"
       fill-rule="evenodd"
       fill="transparent"
       d="m 180,68 h 22 v 22 h -22 z" />
  </g>
  <g
     fill-rule="evenodd"
     transform="translate(2.0329319,4)"
     id="normal-bottomleft">
    <path
       fill="transparent"
       d="m 0,28 c 0,1.108 0.892,2 2,2 v -2 z"
       id="rect833-7-3" />
  </g>
  <g
     fill-rule="evenodd"
     transform="translate(4,4)"
     id="normal-bottom">
    <path
       fill="transparent"
       d="m -26,-30 h 22 v 2 h -22 z"
       transform="scale(-1)"
       id="rect829-6" />
  </g>
  <g
     fill-rule="evenodd"
     transform="matrix(1,0,0,-1,2.0329319,30)"
     id="normal-topleft">
    <path
       fill="transparent"
       d="m 0,28 c 0,1.108 0.892,2 2,2 v -2 z"
       id="rect833-7-3-1" />
  </g>
  <g
     fill-rule="evenodd"
     transform="matrix(1,0,0,-1,4,30)"
     id="normal-top">
    <path
       fill="transparent"
       d="m -26,-30 h 22 v 2 h -22 z"
       transform="scale(-1)"
       id="rect829-6-0" />
  </g>
  <g
     fill-rule="evenodd"
     transform="matrix(0,1,1,0,5.9558058,0)"
     id="normal-topright">
    <path
       fill="transparent"
       d="m 0,28 c 0,1.108 0.892,2 2,2 v -2 z"
       id="rect833-7-3-6" />
  </g>
  <g
     fill-rule="evenodd"
     transform="matrix(0,1,1,0,5.9670681,2)"
     id="normal-right">
    <path
       fill="transparent"
       d="m -26,-30 h 22 v 2 h -22 z"
       transform="scale(-1)"
       id="rect829-6-26" />
  </g>
  <g
     fill-rule="evenodd"
     transform="matrix(-1,0,0,1,34.055456,4)"
     id="normal-bottomright">
    <path
       fill="transparent"
       d="m -2,28 c 0,1.108 0.892,2 2,2 v -2 z"
       id="rect833-7-3-7" />
  </g>
  <g
     fill-rule="evenodd"
     transform="rotate(90,15,17)"
     id="normal-left">
    <path
       fill="transparent"
       d="m -26,-30 h 22 v 2 h -22 z"
       transform="scale(-1)"
       id="rect829-6-26-0" />
  </g>
  <path
     fill-rule="evenodd"
     fill="#ff00ff"
     d="m 18,0 h 2 v 6 h -2 z"
     id="normal-hint-top-margin"
     style="display:inline;fill:#ed333b;stroke-width:0.999996" />
  <path
     fill-rule="evenodd"
     fill="#ff00ff"
     d="m 18,28 h 2 v 6 h -2 z"
     id="normal-hint-bottom-margin"
     style="display:inline;fill:#ed333b;stroke-width:0.999996" />
  <path
     fill-rule="evenodd"
     fill="#ff00ff"
     d="M 2.1213202,16 H 8 v 2 H 2.1213202 Z"
     id="normal-hint-left-margin"
     style="display:inline;fill:#ed333b;stroke-width:0.989838" />
  <path
     fill-rule="evenodd"
     fill="#ff00ff"
     d="m 30,16 h 6.055457 v 2 H 30 Z"
     id="normal-hint-right-margin"
     style="display:inline;fill:#ed333b;stroke-width:1.00461" />
  <g
     transform="translate(-66,-138)"
     id="hover-center">
    <path
       id="path208"
       fill-rule="evenodd"
       fill="currentColor"
       class="ColorScheme-ButtonFocus"
       d="m 118,144 h 22 v 22 h -22 z" />
  </g>
  <g
     fill-rule="evenodd"
     transform="translate(46.032932,4)"
     id="hover-bottomleft">
    <path
       sodipodi:nodetypes="ccccc"
       fill="currentColor"
       class="ColorScheme-ButtonFocus"
       d="m 0,28 v 2 h 2 v -2 z"
       id="rect833-7-3-55-1-3" />
  </g>
  <g
     fill-rule="evenodd"
     transform="translate(48,4)"
     id="hover-bottom">
    <path
       fill="currentColor"
       class="ColorScheme-ButtonFocus"
       d="m -26,-30 h 22 v 2 h -22 z"
       transform="scale(-1)"
       id="rect829-6-5-1-9" />
  </g>
  <g
     fill-rule="evenodd"
     transform="matrix(1,0,0,-1,46.032932,30)"
     id="hover-topleft">
    <path
       sodipodi:nodetypes="ccccc"
       fill="currentColor"
       class="ColorScheme-ButtonFocus"
       d="m 0,28 v 2 h 2 v -2 z"
       id="rect833-7-3-1-3-9-6" />
  </g>
  <g
     fill-rule="evenodd"
     transform="matrix(1,0,0,-1,48,30)"
     id="hover-top">
    <path
       fill="currentColor"
       class="ColorScheme-ButtonFocus"
       d="m -26,-30 h 22 v 2 h -22 z"
       transform="scale(-1)"
       id="rect829-6-0-5-6-4" />
  </g>
  <g
     fill-rule="evenodd"
     transform="matrix(0,1,1,0,49.967068,0)"
     id="hover-topright">
    <path
       sodipodi:nodetypes="ccccc"
       fill="currentColor"
       class="ColorScheme-ButtonFocus"
       d="m 0,28 v 2 h 2 v -2 z"
       id="rect833-7-3-6-4-6-4" />
  </g>
  <g
     fill-rule="evenodd"
     transform="matrix(0,1,1,0,49.967068,2)"
     id="hover-right">
    <path
       fill="currentColor"
       class="ColorScheme-ButtonFocus"
       d="m -26,-30 h 22 v 2 h -22 z"
       transform="scale(-1)"
       id="rect829-6-26-4-3-8" />
  </g>
  <g
     fill-rule="evenodd"
     transform="matrix(-1,0,0,1,79.967068,4)"
     id="hover-bottomright">
    <path
       sodipodi:nodetypes="ccccccc"
       fill="currentColor"
       class="ColorScheme-ButtonFocus"
       d="m 0,28 v 2 H 2 V 29 28 H 1 Z"
       id="rect833-7-3-7-7-8-2" />
  </g>
  <g
     fill-rule="evenodd"
     transform="rotate(90,37.016466,39.016466)"
     id="hover-left">
    <path
       fill="currentColor"
       class="ColorScheme-ButtonFocus"
       d="m -26,-30 h 22 v 2 h -22 z"
       transform="scale(-1)"
       id="rect829-6-26-0-8-9-6" />
  </g>
  <path
     fill-rule="evenodd"
     fill="#ff00ff"
     d="m 62,0 h 2 v 6 h -2 z"
     id="hover-hint-top-margin"
     style="display:inline;fill:#ed333b;stroke-width:0.999996" />
  <path
     fill-rule="evenodd"
     fill="#ff00ff"
     d="m 62,28 h 2 v 6 h -2 z"
     id="hover-hint-bottom-margin"
     style="display:inline;fill:#ed333b;stroke-width:0.999996" />
  <path
     fill-rule="evenodd"
     fill="#ff00ff"
     d="M 46.032932,16 H 52 v 2 h -5.967068 z"
     id="hover-hint-left-margin"
     style="display:inline;fill:#ed333b;stroke-width:0.997251" />
  <path
     fill-rule="evenodd"
     fill="#ff00ff"
     d="m 74,16 h 6.055456 v 2 H 74 Z"
     id="hover-hint-right-margin"
     style="display:inline;fill:#ed333b;stroke-width:1.00461" />
  <g
     id="pressed-center"
     transform="translate(-22,-138)">
    <path
       d="m 118,144 h 22 v 22 h -22 z"
       class="ColorScheme-ButtonFocus"
       fill="currentColor"
       fill-rule="evenodd"
       id="path208-6" />
  </g>
  <g
     id="pressed-bottomleft"
     transform="translate(89.944544,4)"
     fill-rule="evenodd">
    <path
       id="rect833-7-3-55-1-3-5"
       d="m 0,28 v 2 h 2 v -2 z"
       class="ColorScheme-ButtonFocus"
       fill="currentColor"
       sodipodi:nodetypes="ccccc" />
  </g>
  <g
     id="pressed-bottom"
     transform="translate(92,4)"
     fill-rule="evenodd">
    <path
       id="rect829-6-5-1-9-5"
       transform="scale(-1)"
       d="m -26,-30 h 22 v 2 h -22 z"
       class="ColorScheme-ButtonFocus"
       fill="currentColor" />
  </g>
  <g
     id="pressed-topleft"
     transform="matrix(1,0,0,-1,89.944544,30)"
     fill-rule="evenodd">
    <path
       id="rect833-7-3-1-3-9-6-2"
       d="m 0,28 v 2 h 2 v -2 z"
       class="ColorScheme-ButtonFocus"
       fill="currentColor"
       sodipodi:nodetypes="ccccc" />
  </g>
  <g
     id="pressed-top"
     transform="matrix(1,0,0,-1,92,30)"
     fill-rule="evenodd">
    <path
       id="rect829-6-0-5-6-4-1"
       transform="scale(-1)"
       d="m -26,-30 h 22 v 2 h -22 z"
       class="ColorScheme-ButtonFocus"
       fill="currentColor" />
  </g>
  <g
     id="pressed-topright"
     transform="matrix(0,1,1,0,94.055456,0)"
     fill-rule="evenodd">
    <path
       id="rect833-7-3-6-4-6-4-7"
       d="m 0,28 v 2 h 2 v -2 z"
       class="ColorScheme-ButtonFocus"
       fill="currentColor"
       sodipodi:nodetypes="ccccc" />
  </g>
  <g
     id="pressed-right"
     transform="matrix(0,1,1,0,94.055456,2)"
     fill-rule="evenodd">
    <path
       id="rect829-6-26-4-3-8-9"
       transform="scale(-1)"
       d="m -26,-30 h 22 v 2 h -22 z"
       class="ColorScheme-ButtonFocus"
       fill="currentColor" />
  </g>
  <g
     id="pressed-bottomright"
     transform="matrix(-1,0,0,1,123.96707,4)"
     fill-rule="evenodd">
    <path
       id="rect833-7-3-7-7-8-2-6"
       d="m 0,28 v 2 H 2 V 29 28 H 1 Z"
       class="ColorScheme-ButtonFocus"
       fill="currentColor"
       sodipodi:nodetypes="ccccccc" />
  </g>
  <g
     id="pressed-left"
     transform="rotate(90,59.016466,61.016466)"
     fill-rule="evenodd">
    <path
       id="rect829-6-26-0-8-9-6-6"
       transform="scale(-1)"
       d="m -26,-30 h 22 v 2 h -22 z"
       class="ColorScheme-ButtonFocus"
       fill="currentColor" />
  </g>
  <path
     style="display:inline;fill:#ed333b;stroke-width:0.999996"
     id="pressed-hint-top-margin"
     d="m 106,0 h 2 v 6 h -2 z"
     fill="#ff00ff"
     fill-rule="evenodd" />
  <path
     style="display:inline;fill:#ed333b;stroke-width:0.999996"
     id="pressed-hint-bottom-margin"
     d="m 106,28 h 2 v 6 h -2 z"
     fill="#ff00ff"
     fill-rule="evenodd" />
  <path
     style="display:inline;fill:#ed333b;stroke-width:1.00461"
     id="pressed-hint-left-margin"
     d="M 89.944544,16 H 96 v 2 h -6.055456 z"
     fill="#ff00ff"
     fill-rule="evenodd" />
  <path
     style="display:inline;fill:#ed333b;stroke-width:0.997251"
     id="pressed-hint-right-margin"
     d="m 118,16 h 5.96707 v 2 H 118 Z"
     fill="#ff00ff"
     fill-rule="evenodd" />
</svg>
