<?xml version="1.0" encoding="UTF-8" standalone="no"?>
<svg
   inkscape:version="1.4.3 (0d15f75042, 2025-12-25)"
   sodipodi:docname="menubaritem.svg"
   version="1.1"
   viewBox="0 0 126 34"
   id="svg2"
   width="126"
   height="42"
   xmlns:inkscape="http://www.inkscape.org/namespaces/inkscape"
   xmlns:sodipodi="http://sodipodi.sourceforge.net/DTD/sodipodi-0.dtd"
   xmlns="http://www.w3.org/2000/svg"
   xmlns:svg="http://www.w3.org/2000/svg">
  <defs
     id="defs319" />
  <sodipodi:namedview
     inkscape:window-maximized="1"
     inkscape:window-y="0"
     inkscape:window-x="0"
     inkscape:cy="27.959163"
     inkscape:cx="34.071166"
     inkscape:zoom="11.53468"
     inkscape:current-layer="svg2"
     showgrid="true"
     id="namedview317"
     inkscape:window-height="746"
     inkscape:window-width="1366"
     inkscape:pageshadow="2"
     inkscape:pageopacity="0"
     guidetolerance="10"
     gridtolerance="10"
     objecttolerance="10"
     borderopacity="1"
     bordercolor="#666666"
     pagecolor="#ffffff"
     inkscape:snap-text-baseline="true"
     inkscape:snap-smooth-nodes="true"
     fit-margin-top="0"
     fit-margin-left="0"
     fit-margin-right="0"
     fit-margin-bottom="0"
     inkscape:showpageshadow="2"
     inkscape:pagecheckerboard="0"
     inkscape:deskcolor="#d1d1d1">
    <inkscape:grid
       empspacing="2"
       id="grid1136"
       type="xygrid"
       originx="2"
       originy="0"
       spacingy="1"
       spacingx="1"
       units="px" />
  </sodipodi:namedview>
  <style
     id="current-color-scheme"
     type="text/css">
        .ColorScheme-ButtonBackground {
            color:#eff0f1;
            stop-color:#eff0f1;
        }
        .ColorScheme-ButtonHover {
            color:#93cee9;
            stop-color:#93cee9;
        }
        .ColorScheme-ButtonFocus{
            color:#3daee9;
            stop-color:#3daee9;
        }
    </style>
  <g
     transform="translate(-170,-62)"
     id="normal-center">
    <path
       id="path34"
       fill-rule="evenodd"
       fill="transparent"
       d="m 180,68 h 22 v 22 h -22 z" />
  </g>
  <g
     fill-rule="evenodd"
     transform="matrix(2.0000001,0,0,1.9687501,3.9999999,-25.125002)"
     id="normal-bottomleft">
    <path
       fill="transparent"
       d="m 0,28 c 0,1.108 0.892,2 2,2 v -2 z"
       id="rect833-7-3" />
  </g>
  <g
     fill-rule="evenodd"
     transform="matrix(1,0,0,1.9687501,6,-25.125002)"
     id="normal-bottom">
    <path
       fill="transparent"
       d="m -26,-30 h 22 v 2 h -22 z"
       transform="scale(-1)"
       id="rect829-6" />
  </g>
  <g
     fill-rule="evenodd"
     transform="matrix(2.0000001,0,0,-1.9062501,3.9999999,57.375002)"
     id="normal-topleft">
    <path
       fill="transparent"
       d="m 0,28 c 0,1.108 0.892,2 2,2 v -2 z"
       id="rect833-7-3-1" />
  </g>
  <g
     fill-rule="evenodd"
     transform="matrix(1,0,0,-1.9375001,6,58.250002)"
     id="normal-top">
    <path
       fill="transparent"
       d="M 26,30 H 4 v -2 h 22 z"
       id="rect829-6-0" />
  </g>
  <g
     fill-rule="evenodd"
     transform="matrix(0,1.9687501,2.0000001,0,-22.000002,0.06249987)"
     id="normal-topright">
    <path
       fill="transparent"
       d="m 0,28 c 0,1.108 0.892,2 2,2 v -2 z"
       id="rect833-7-3-6" />
  </g>
  <g
     fill-rule="evenodd"
     transform="matrix(0,1,2.0000001,0,-22.000002,2)"
     id="normal-right">
    <path
       fill="transparent"
       d="m -26,-30 h 22 v 2 h -22 z"
       transform="scale(-1)"
       id="rect829-6-26" />
  </g>
  <g
     fill-rule="evenodd"
     transform="matrix(-2.0312501,0,0,1.9687501,34,-25.125002)"
     id="normal-bottomright">
    <path
       fill="transparent"
       d="m -2,28 c 0,1.108 0.892,2 2,2 v -2 z"
       id="rect833-7-3-7" />
  </g>
  <g
     fill-rule="evenodd"
     transform="matrix(0,1,-3,0,92,2)"
     id="normal-left">
    <path
       fill="transparent"
       d="M 26,29.3125 H 4 V 28 h 22 z"
       id="rect829-6-26-0"
       style="stroke-width:0.810093" />
  </g>
  <path
     fill-rule="evenodd"
     fill="#ff00ff"
     d="m 20,0.12499987 h 2 V 6 h -2 z"
     id="normal-hint-top-margin"
     style="display:inline;fill:#ed333b;stroke-width:0.98952" />
  <path
     fill-rule="evenodd"
     fill="#ff00ff"
     d="m 20,28 h 2 v 5.9375 h -2 z"
     id="normal-hint-bottom-margin"
     style="display:inline;fill:#ed333b;stroke-width:0.994778" />
  <path
     fill-rule="evenodd"
     fill="#ff00ff"
     d="M 4.0624999,16 H 10 v 2 H 4.0624999 Z"
     id="normal-hint-left-margin"
     style="display:inline;fill:#ed333b;stroke-width:0.994778" />
  <path
     fill-rule="evenodd"
     fill="#ff00ff"
     d="m 32,16 h 6 v 2 h -6 z"
     id="normal-hint-right-margin"
     style="display:inline;fill:#ed333b;stroke-width:0.999995" />
  <g
     transform="translate(-66,-138)"
     id="hover-center">
    <path
       id="path208"
       fill-rule="evenodd"
       fill="currentColor"
       class="ColorScheme-ButtonFocus"
       d="m 118,144 h 22 v 22 h -22 z" />
  </g>
  <g
     fill-rule="evenodd"
     transform="matrix(1.9885058,0,0,2.1111111,46.022988,-29.111113)"
     id="hover-bottomleft">
    <path
       sodipodi:nodetypes="ccccc"
       fill="currentColor"
       class="ColorScheme-ButtonFocus"
       d="m 0,28 c 0,1.108 0.892,2 2,2 v -2 z"
       id="rect833-7-3-55-1-3" />
  </g>
  <g
     fill-rule="evenodd"
     transform="matrix(1,0,0,2.1336964,48,-29.666063)"
     id="hover-bottom">
    <path
       fill="currentColor"
       class="ColorScheme-ButtonFocus"
       d="m -26,-30 h 22 v 2 h -22 z"
       transform="scale(-1)"
       id="rect829-6-5-1-9" />
  </g>
  <g
     fill-rule="evenodd"
     transform="matrix(1.9885058,0,0,-2.1417625,46.022988,63.96935)"
     id="hover-topleft">
    <path
       sodipodi:nodetypes="ccccc"
       fill="currentColor"
       class="ColorScheme-ButtonFocus"
       d="m 0,28 c 0,1.108 0.892,2 2,2 v -2 z"
       id="rect833-7-3-1-3-9-6" />
  </g>
  <g
     fill-rule="evenodd"
     transform="matrix(1,0,0,-2.1336964,48,63.727366)"
     id="hover-top">
    <path
       fill="currentColor"
       class="ColorScheme-ButtonFocus"
       d="m -26,-30 h 22 v 2 h -22 z"
       transform="scale(-1)"
       id="rect829-6-0-5-6-4" />
  </g>
  <g
     fill-rule="evenodd"
     transform="matrix(0,2.1417625,2.0191571,0,19.4636,-0.28352501)"
     id="hover-topright">
    <path
       sodipodi:nodetypes="ccccc"
       fill="currentColor"
       class="ColorScheme-ButtonFocus"
       d="m 0,28 c 0,1.108 0.892,2 2,2 v -2 z"
       id="rect833-7-3-6-4-6-4" />
  </g>
  <g
     fill-rule="evenodd"
     transform="matrix(0,1,3,0,0.43749947,2)"
     id="hover-right">
    <path
       fill="currentColor"
       class="ColorScheme-ButtonFocus"
       d="M 26,26.540105 H 4 v -1.348438 h 22 z"
       id="rect829-6-26-4-3-8"
       style="stroke-width:0.821108" />
  </g>
  <g
     fill-rule="evenodd"
     transform="matrix(-2.0498085,0,0,2.1417625,80.099617,-29.96935)"
     id="hover-bottomright">
    <path
       sodipodi:nodetypes="ccccccc"
       fill="currentColor"
       class="ColorScheme-ButtonFocus"
       d="m 0,28 c 0,1.108 0.892,2 2,2 v -2 z"
       id="rect833-7-3-7-7-8-2" />
  </g>
  <g
     fill-rule="evenodd"
     transform="matrix(0,1,-2.0226562,0,106.67969,2)"
     id="hover-left">
    <path
       fill="currentColor"
       class="ColorScheme-ButtonFocus"
       d="m -26,-30 h 22 v 2 h -22 z"
       transform="scale(-1)"
       id="rect829-6-26-0-8-9-6" />
  </g>
  <path
     fill-rule="evenodd"
     fill="#ff00ff"
     d="m 62,-0.34482768 h 2 V 6.0419438 h -2 z"
     id="hover-hint-top-margin"
     style="display:inline;fill:#ed333b;stroke-width:1.03173" />
  <path
     fill-rule="evenodd"
     fill="#ff00ff"
     d="m 61.938697,27.958055 h 2 v 6.386772 h -2 z"
     id="hover-hint-bottom-margin"
     style="display:inline;fill:#ed333b;stroke-width:1.03173" />
  <path
     fill-rule="evenodd"
     fill="#ff00ff"
     d="m 46,16 h 6.00625 v 2 H 46 Z"
     id="hover-hint-left-margin"
     style="display:inline;fill:#ed333b;stroke-width:1.00052" />
  <path
     fill-rule="evenodd"
     fill="#ff00ff"
     d="m 74.023438,15.9375 h 6.00625 v 2 h -6.00625 z"
     id="hover-hint-right-margin"
     style="display:inline;fill:#ed333b;stroke-width:1.00052" />
  <g
     id="pressed-center"
     transform="translate(-24,-138)">
    <path
       d="m 118,144 h 22 v 22 h -22 z"
       class="ColorScheme-ButtonFocus"
       fill="currentColor"
       fill-rule="evenodd"
       id="path208-6" />
  </g>
  <g
     id="pressed-bottomleft"
     transform="matrix(2.0191571,0,0,2.1111112,87.961686,-29.111113)"
     fill-rule="evenodd">
    <path
       id="rect833-7-3-55-1-3-5"
       d="m 0,28 c 0,1.108 0.892,2 2,2 v -2 z"
       class="ColorScheme-ButtonFocus"
       fill="currentColor"
       sodipodi:nodetypes="ccccc" />
  </g>
  <g
     id="pressed-bottom"
     transform="matrix(1,0,0,2.1336964,90,-29.727366)"
     fill-rule="evenodd">
    <path
       id="rect829-6-5-1-9-5"
       transform="scale(-1)"
       d="m -26,-30 h 22 v 2 h -22 z"
       class="ColorScheme-ButtonFocus"
       fill="currentColor" />
  </g>
  <g
     id="pressed-topleft"
     transform="matrix(1.9885058,0,0,-2.1111112,88.022988,63.111113)"
     fill-rule="evenodd">
    <path
       id="rect833-7-3-1-3-9-6-2"
       d="m 0,28 c 0,1.108 0.892,2 2,2 v -2 z"
       class="ColorScheme-ButtonFocus"
       fill="currentColor"
       sodipodi:nodetypes="ccccc" />
  </g>
  <g
     id="pressed-top"
     transform="matrix(1,0,0,-2.1336964,90,63.727366)"
     fill-rule="evenodd">
    <path
       id="rect829-6-0-5-6-4-1"
       transform="scale(-1)"
       d="m -26,-30 h 22 v 2 h -22 z"
       class="ColorScheme-ButtonFocus"
       fill="currentColor" />
  </g>
  <g
     id="pressed-topright"
     transform="matrix(0,2.1417625,2.0191571,0,61.4636,-0.28352501)"
     fill-rule="evenodd">
    <path
       id="rect833-7-3-6-4-6-4-7"
       d="m 0,28 c 0,1.108 0.892,2 2,2 v -2 z"
       class="ColorScheme-ButtonFocus"
       fill="currentColor"
       sodipodi:nodetypes="ccccc" />
  </g>
  <g
     id="pressed-right"
     transform="matrix(0,1,2.0226562,0,61.382812,2)"
     fill-rule="evenodd">
    <path
       id="rect829-6-26-4-3-8-9"
       transform="scale(-1)"
       d="m -26,-30 h 22 v 2 h -22 z"
       class="ColorScheme-ButtonFocus"
       fill="currentColor" />
  </g>
  <g
     id="pressed-bottomright"
     transform="matrix(-2.0498085,0,0,2.1417625,118,-29.96935)"
     fill-rule="evenodd">
    <path
       id="rect833-7-3-7-7-8-2-6"
       d="m -2,28 c 0,1.108 0.892,2 2,2 v -2 z"
       class="ColorScheme-ButtonFocus"
       fill="currentColor"
       sodipodi:nodetypes="ccccccc" />
  </g>
  <g
     id="pressed-left"
     transform="matrix(0,1,-2.0226562,0,148.68437,2)"
     fill-rule="evenodd">
    <path
       id="rect829-6-26-0-8-9-6-6"
       transform="scale(-1)"
       d="m -26,-30 h 22 v 2 h -22 z"
       class="ColorScheme-ButtonFocus"
       fill="currentColor" />
  </g>
  <path
     style="display:inline;fill:#ed333b;stroke-width:1.03173"
     id="pressed-hint-top-margin"
     d="m 104,-0.34482768 h 2 V 6.0419438 h -2 z"
     fill="#ff00ff"
     fill-rule="evenodd" />
  <path
     style="display:inline;fill:#ed333b;stroke-width:1.03173"
     id="pressed-hint-bottom-margin"
     d="m 104,27.896752 h 2 v 6.386772 h -2 z"
     fill="#ff00ff"
     fill-rule="evenodd" />
  <path
     style="display:inline;fill:#ed333b;stroke-width:1.00052"
     id="pressed-hint-left-margin"
     d="m 87.970312,15.9375 h 6.00625 v 2 h -6.00625 z"
     fill="#ff00ff"
     fill-rule="evenodd" />
  <path
     style="display:inline;fill:#ed333b;stroke-width:1.00052"
     id="pressed-hint-right-margin"
     d="M 115.99375,15.9375 H 122 v 2 h -6.00625 z"
     fill="#ff00ff"
     fill-rule="evenodd" />
</svg>
